<?xml version="1.0" encoding="UTF-8"?>
<svg version="1.1" xmlns="http://www.w3.org/2000/svg" width="512" height="512">
<path d="M0 0 C1.09094247 -0.00782324 2.18188494 -0.01564648 3.30588627 -0.02370679 C4.50907725 -0.01701463 5.71226824 -0.01032246 6.95191956 -0.00342751 C8.22643447 -0.00810748 9.50094938 -0.01278745 10.81408596 -0.01760924 C14.35888716 -0.03017094 17.90344709 -0.02392557 21.44824934 -0.01465058 C25.26834748 -0.00788148 29.08840324 -0.01833066 32.90849304 -0.02659035 C40.3948612 -0.03995281 47.8811393 -0.03703879 55.36751103 -0.02835242 C61.45008793 -0.02158615 67.53263954 -0.02065457 73.61521912 -0.02392387 C74.47985918 -0.02438357 75.34449925 -0.02484327 76.23534054 -0.0253169 C77.99166275 -0.02627605 79.74798495 -0.02724869 81.50430715 -0.02823468 C97.98585293 -0.03679593 114.4673487 -0.02694292 130.94888628 -0.01083358 C145.10071994 0.00257027 159.2524798 0.00024239 173.40431213 -0.01358986 C189.82558057 -0.0296327 206.24680515 -0.03597189 222.66808033 -0.02675307 C224.41805839 -0.02579739 226.16803645 -0.02485428 227.91801453 -0.02392387 C228.77910983 -0.02346105 229.64020513 -0.02299822 230.52739424 -0.02252137 C236.60493834 -0.01992759 242.6824547 -0.02431082 248.75999451 -0.03136253 C256.16324087 -0.03976336 263.56639176 -0.03752736 270.96962714 -0.0215203 C274.74922044 -0.01361839 278.52865438 -0.01057844 282.30824661 -0.02046776 C286.39940876 -0.03101066 290.49016611 -0.01845005 294.58131409 -0.00342751 C295.78450507 -0.01011967 296.98769606 -0.01681184 298.22734737 -0.02370679 C299.86376108 -0.01197193 299.86376108 -0.01197193 301.53323364 0 C302.95075849 0.00073059 302.95075849 0.00073059 304.3969202 0.00147593 C306.76661682 0.37752342 306.76661682 0.37752342 308.57010806 1.66477638 C310.70360351 4.7187766 310.17616557 8.43761202 310.14756775 12.03409386 C310.15224772 12.92924428 310.15692769 13.82439471 310.16174948 14.7466709 C310.17375544 17.75894312 310.16422001 20.77076506 310.15480042 23.783041 C310.15886394 25.93808318 310.16420459 28.09312328 310.17073059 30.24815941 C310.18444498 36.1144888 310.17908615 41.98066046 310.16959333 47.84699273 C310.16200735 53.9890659 310.16904039 60.13112539 310.17375183 66.27319908 C310.179217 76.6008859 310.17200254 86.92850847 310.1577301 97.25618553 C310.14144965 109.17401144 310.14665549 121.09168301 310.16320932 133.00950509 C310.17685932 143.24835423 310.17872527 153.4871571 310.17089331 163.72601241 C310.16622996 169.83760043 310.16555407 175.94911616 310.17550278 182.06069946 C310.18421956 187.81859797 310.17806486 193.5762996 310.16082001 199.33417702 C310.15687817 201.43913319 310.15794933 203.54410615 310.164608 205.64905548 C310.24154681 232.46021547 303.99746982 254.76910947 284.80177307 274.49080467 C268.99432201 289.9567527 248.32660086 297.88784688 226.30577087 297.76520348 C225.12227794 297.77058901 223.93878501 297.77597455 222.71942866 297.78152329 C219.47487109 297.79325165 216.23064892 297.79178093 212.98608923 297.78435647 C209.47139525 297.77958975 205.95675416 297.79216509 202.44207764 297.80237389 C195.573365 297.81949699 188.70474411 297.82041575 181.83601569 297.81516098 C176.25097986 297.81110723 170.66597099 297.81257708 165.08093643 297.81790924 C164.28379435 297.81865766 163.48665228 297.81940608 162.66535438 297.82017719 C161.04562436 297.82170877 159.42589435 297.82324711 157.80616434 297.82479215 C142.64675803 297.83849277 127.48740346 297.83309586 112.32799836 297.82160694 C98.47520524 297.81166893 84.62254559 297.82462935 70.76977305 297.84854113 C56.52096814 297.87295003 42.27222534 297.88253611 28.02339995 297.87588841 C20.03353403 297.87240122 12.04377079 297.87459557 4.05392075 297.89213943 C-2.74464873 297.90688351 -9.54304313 297.90746774 -16.34160925 297.89006852 C-19.80637791 297.88157572 -23.27083408 297.87936651 -26.73558617 297.89472008 C-30.4995189 297.90793477 -34.26260772 297.89637659 -38.02650452 297.87872887 C-39.65186738 297.89313638 -39.65186738 297.89313638 -41.31006587 297.90783495 C-53.92904818 297.78648664 -62.59245198 293.22786757 -71.85838318 285.06502342 C-82.39621401 273.1406359 -84.847261 260.55438339 -84.7509613 244.92024803 C-84.75639604 243.41744374 -84.7635262 241.91464478 -84.77220154 240.4118557 C-84.79026347 236.37309375 -84.78344308 232.3347455 -84.7706852 228.29597735 C-84.76048465 224.05512827 -84.76996874 219.81431216 -84.77622986 215.57346153 C-84.78347873 208.46487179 -84.77398398 201.35644907 -84.75486755 194.24788475 C-84.73302851 186.03203549 -84.74021194 177.81658224 -84.76217318 169.60074228 C-84.78031627 162.52952876 -84.78289314 155.45843445 -84.7724185 148.38720518 C-84.76618721 144.17076112 -84.76533935 139.95450349 -84.77856445 135.73807144 C-84.7901092 131.78237849 -84.78212313 127.82719851 -84.75898743 123.87156105 C-84.75369613 122.42032473 -84.75522138 120.96904526 -84.76403809 119.51782608 C-84.77495666 117.53841119 -84.75884092 115.55890197 -84.74131775 113.57953453 C-84.73980965 112.47183173 -84.73830154 111.36412893 -84.73674774 110.22285938 C-84.11320696 106.69821117 -83.06257073 105.51227753 -80.23338318 103.37752342 C-76.93357849 102.92342186 -76.93357849 102.92342186 -73.06150818 102.98689842 C-72.03788177 102.99538811 -72.03788177 102.99538811 -70.99357605 103.0040493 C-68.82278556 103.02636706 -66.65367112 103.07654835 -64.48338318 103.12752342 C-63.00814667 103.14759467 -61.53288418 103.16584436 -60.05760193 103.18221092 C-56.44898817 103.22621462 -52.84134936 103.29520759 -49.23338318 103.37752342 C-49.24909363 102.18151512 -49.26480408 100.98550682 -49.2809906 99.75325584 C-49.33525379 95.31973049 -49.36972008 90.88623454 -49.3981781 86.45247459 C-49.41327298 84.53282804 -49.43375091 82.61321602 -49.45970154 80.69368553 C-49.49605427 77.93586779 -49.5131023 75.17850562 -49.52635193 72.42049217 C-49.54183578 71.56102486 -49.55731964 70.70155754 -49.57327271 69.81604576 C-49.5734993 69.01544228 -49.57372589 68.21483879 -49.57395935 67.38997459 C-49.58062119 66.68604073 -49.58728302 65.98210686 -49.59414673 65.25684166 C-49.11332246 62.75209358 -48.26858326 61.88259394 -46.23338318 60.37752342 C-43.29153577 60.11584663 -40.56601108 60.02878421 -37.62791443 60.08455467 C-36.78870956 60.08879951 -35.9495047 60.09304436 -35.08486938 60.09741783 C-32.40488073 60.11420878 -29.72564448 60.15186113 -27.04588318 60.19002342 C-25.22883675 60.20506975 -23.41177853 60.21875825 -21.5947113 60.23103905 C-17.14064542 60.2641136 -12.68714186 60.31589829 -8.23338318 60.37752342 C-8.24337593 59.31636566 -8.24337593 59.31636566 -8.25357056 58.23377037 C-8.31367015 51.56833447 -8.35935157 44.90297412 -8.38881969 38.23732853 C-8.40447891 34.81039119 -8.42572121 31.38367765 -8.45970154 27.95686913 C-8.49851832 24.01768734 -8.51309033 20.07859633 -8.52635193 16.13924217 C-8.54183578 14.90792061 -8.55731964 13.67659904 -8.57327271 12.40796471 C-8.5734993 11.26700844 -8.57372589 10.12605217 -8.57395935 8.95052147 C-8.5839521 7.44161591 -8.5839521 7.44161591 -8.59414673 5.9022274 C-7.84784037 0.67940864 -4.83103282 0.00248989 0 0 Z " fill="#FDDEB1" transform="translate(149.23338317871094,117.62247657775879)"/>
<path d="M0 0 C91.41 0 182.82 0 277 0 C277.0928125 48.9121875 277.0928125 48.9121875 277.1875 98.8125 C277.21481201 109.10155518 277.24212402 119.39061035 277.27026367 129.99145508 C277.28381348 142.5736084 277.28381348 142.5736084 277.28633118 148.46733093 C277.2891216 152.57606383 277.30034608 156.68467996 277.31672668 160.79338074 C277.33737246 166.04179053 277.3434608 171.29003163 277.33921683 176.53847826 C277.34010369 178.45995605 277.34601193 180.38144001 277.35764539 182.30288279 C277.41334206 191.95393634 277.41020525 200.82035269 274 210 C273.5771875 211.1859375 273.154375 212.371875 272.71875 213.59375 C272.3165625 214.5528125 271.914375 215.511875 271.5 216.5 C271.0978125 217.4796875 270.695625 218.459375 270.28125 219.46875 C269.06456029 221.87245405 267.92705531 223.17897249 266 225 C265.99503478 224.05963237 265.99503478 224.05963237 265.98996925 223.10026741 C265.90882438 207.86114438 265.81676018 192.62213006 265.71247292 177.3831501 C265.66230541 170.01375539 265.61586309 162.64437205 265.578125 155.27490234 C265.5452313 148.85327304 265.50541482 142.43173082 265.45720994 136.01019752 C265.43191867 132.60858959 265.41014533 129.20703961 265.39665604 125.8053627 C265.37987625 122.01220332 265.35086138 118.21932651 265.31884766 114.42626953 C265.31668747 113.29266998 265.31452728 112.15907043 265.31230164 110.99111938 C265.29555641 109.4472052 265.29555641 109.4472052 265.2784729 107.87210083 C265.27294214 106.97427446 265.26741138 106.0764481 265.26171303 105.15141487 C265.1984905 102.78746093 265.1984905 102.78746093 263 101 C259.98360993 100.80191231 257.05889516 100.73086703 254.04125977 100.74603271 C253.101745 100.74291273 252.16223024 100.73979275 251.19424534 100.73657823 C248.02656965 100.72856146 244.85908358 100.73493616 241.69140625 100.74121094 C239.4283741 100.73850271 237.16534282 100.73494273 234.90231323 100.73059082 C228.74131499 100.72144456 222.58038346 100.72502027 216.419384 100.73134899 C209.98474695 100.73639744 203.55011578 100.73172077 197.11547852 100.72857666 C185.61464981 100.7247 174.11385533 100.73093206 162.61303198 100.74109533 C152.17787862 100.75003127 141.74276975 100.74847935 131.30761719 100.73925781 C119.19987368 100.72856327 107.09216512 100.72456622 94.98441601 100.73048234 C88.57139708 100.73360732 82.15840883 100.73399696 75.74539185 100.72740936 C69.71755025 100.72165042 63.68979304 100.72560608 57.6619606 100.73719788 C55.44392156 100.73985226 53.22587548 100.73906621 51.0078392 100.73467255 C47.99137558 100.72924626 44.97518616 100.73601557 41.95874023 100.74603271 C41.07101205 100.74157127 40.18328386 100.73710983 39.26865482 100.73251319 C34.65492399 100.54665871 34.65492399 100.54665871 31 103 C30.6959603 105.23180605 30.6959603 105.23180605 30.74603271 107.85191345 C30.73757324 109.38932442 30.73757324 109.38932442 30.72894287 110.95779419 C30.73299133 112.0866806 30.73703979 113.21556702 30.74121094 114.37866211 C30.7377063 115.56407089 30.73420166 116.74947968 30.73059082 117.97080994 C30.72328183 121.22704216 30.72501612 124.48311257 30.73134899 127.73934245 C30.73640406 131.14390456 30.73171881 134.54845567 30.72857666 137.95301819 C30.72493507 143.67206774 30.72974062 149.3910657 30.73925781 155.11010742 C30.75013757 161.7243571 30.7466211 168.33848344 30.735605 174.95273012 C30.72653138 180.62751571 30.72524736 186.30226415 30.73048234 191.97705466 C30.73360231 195.36806959 30.73401078 198.75902654 30.72740936 202.15003777 C30.72234768 205.93075856 30.73004986 209.71124043 30.74121094 213.49194336 C30.73716248 214.61880554 30.73311401 215.74566772 30.72894287 216.90667725 C30.73740234 218.44831795 30.73740234 218.44831795 30.74603271 220.02110291 C30.74716379 221.36256331 30.74716379 221.36256331 30.74831772 222.73112392 C30.8552089 225.28069538 30.8552089 225.28069538 33 228 C36.06877089 228.30639136 38.93768531 228.41540641 42.01016235 228.39872742 C42.9551718 228.40537424 43.90018124 228.41202107 44.87382734 228.41886932 C48.06003542 228.43761387 51.24587176 228.43488634 54.43212891 228.43237305 C56.70826249 228.44138321 58.98439119 228.45170857 61.26051331 228.46325684 C67.45649091 228.49094049 73.65237675 228.50012674 79.84840822 228.50611091 C86.31738231 228.5154651 92.78628704 228.54166596 99.25521851 228.56611633 C110.1183802 228.6048902 120.9815164 228.63320912 131.84472656 228.65356445 C143.03518332 228.6745615 154.22559577 228.7018254 165.41601562 228.73754883 C166.10548616 228.73974765 166.79495669 228.74194648 167.50532027 228.74421193 C170.96409979 228.75528127 174.42287891 228.76647414 177.88165784 228.77772844 C206.58773176 228.8709734 235.29383382 228.94232163 264 229 C261.7173374 233.72705975 258.53416206 237.14903058 255 241 C254.43539063 241.65355469 253.87078125 242.30710937 253.2890625 242.98046875 C243.29408984 253.91383404 230.09293923 259.44103259 216 263 C214.99817919 263.25939513 214.99817919 263.25939513 213.97611958 263.52403057 C208.52857128 264.84831129 203.46257792 265.28130741 197.86936951 265.24050903 C196.55926512 265.24307231 196.55926512 265.24307231 195.22269398 265.24568737 C192.32082158 265.2489594 189.41918478 265.23801652 186.51733398 265.22705078 C184.42736313 265.22648617 182.33739189 265.2268042 180.24742126 265.22793579 C174.59107483 265.22850836 168.93481364 265.21676944 163.27848697 265.20278788 C157.3607977 265.19026465 151.44310636 265.18910876 145.52540588 265.18673706 C134.32715795 265.18052698 123.12894919 265.16412252 111.93071848 265.14403808 C99.17864178 265.12166442 86.42656319 265.11068196 73.67447174 265.10064721 C47.44962613 265.07975589 21.22481526 265.04458906 -5 265 C-4.53653919 261.38500568 -3.73344622 258.18189396 -2.46242046 254.78582859 C-0.6935042 249.62600844 -0.57351987 244.84344025 -0.60127258 239.42674255 C-0.59131004 237.88757172 -0.59131004 237.88757172 -0.58114624 236.31730652 C-0.56254443 232.88778696 -0.5651405 229.45861707 -0.56762695 226.02905273 C-0.55851869 223.52487484 -0.54810506 221.0207014 -0.53649426 218.51653385 C-0.51182419 212.49913181 -0.50042422 206.48184326 -0.49541168 200.46440426 C-0.48894626 193.49903468 -0.46338874 186.53380687 -0.43786621 179.56848145 C-0.37990102 161.19153153 -0.34777388 142.81450747 -0.3125 124.4375 C-0.209375 83.373125 -0.10625 42.30875 0 0 Z " fill="#EDEDED" transform="translate(152,129)"/>
<path d="M0 0 C1.09094247 -0.00782324 2.18188494 -0.01564648 3.30588627 -0.02370679 C4.50907725 -0.01701463 5.71226824 -0.01032246 6.95191956 -0.00342751 C8.22643447 -0.00810748 9.50094938 -0.01278745 10.81408596 -0.01760924 C14.35888716 -0.03017094 17.90344709 -0.02392557 21.44824934 -0.01465058 C25.26834748 -0.00788148 29.08840324 -0.01833066 32.90849304 -0.02659035 C40.3948612 -0.03995281 47.8811393 -0.03703879 55.36751103 -0.02835242 C61.45008793 -0.02158615 67.53263954 -0.02065457 73.61521912 -0.02392387 C74.47985918 -0.02438357 75.34449925 -0.02484327 76.23534054 -0.0253169 C77.99166275 -0.02627605 79.74798495 -0.02724869 81.50430715 -0.02823468 C97.98585293 -0.03679593 114.4673487 -0.02694292 130.94888628 -0.01083358 C145.10071994 0.00257027 159.2524798 0.00024239 173.40431213 -0.01358986 C189.82558057 -0.0296327 206.24680515 -0.03597189 222.66808033 -0.02675307 C224.41805839 -0.02579739 226.16803645 -0.02485428 227.91801453 -0.02392387 C228.77910983 -0.02346105 229.64020513 -0.02299822 230.52739424 -0.02252137 C236.60493834 -0.01992759 242.6824547 -0.02431082 248.75999451 -0.03136253 C256.16324087 -0.03976336 263.56639176 -0.03752736 270.96962714 -0.0215203 C274.74922044 -0.01361839 278.52865438 -0.01057844 282.30824661 -0.02046776 C286.39940876 -0.03101066 290.49016611 -0.01845005 294.58131409 -0.00342751 C295.78450507 -0.01011967 296.98769606 -0.01681184 298.22734737 -0.02370679 C299.86376108 -0.01197193 299.86376108 -0.01197193 301.53323364 0 C302.95075849 0.00073059 302.95075849 0.00073059 304.3969202 0.00147593 C306.76661682 0.37752342 306.76661682 0.37752342 308.57010806 1.66477638 C310.70360351 4.7187766 310.17616557 8.43761202 310.14756775 12.03409386 C310.15224772 12.92924428 310.15692769 13.82439471 310.16174948 14.7466709 C310.17375544 17.75894312 310.16422001 20.77076506 310.15480042 23.783041 C310.15886394 25.93808318 310.16420459 28.09312328 310.17073059 30.24815941 C310.18444498 36.1144888 310.17908615 41.98066046 310.16959333 47.84699273 C310.16200735 53.9890659 310.16904039 60.13112539 310.17375183 66.27319908 C310.179217 76.6008859 310.17200254 86.92850847 310.1577301 97.25618553 C310.14144965 109.17401144 310.14665549 121.09168301 310.16320932 133.00950509 C310.17685932 143.24835423 310.17872527 153.4871571 310.17089331 163.72601241 C310.16622996 169.83760043 310.16555407 175.94911616 310.17550278 182.06069946 C310.18421956 187.81859797 310.17806486 193.5762996 310.16082001 199.33417702 C310.15687817 201.43913319 310.15794933 203.54410615 310.164608 205.64905548 C310.24154681 232.46021547 303.99746982 254.76910947 284.80177307 274.49080467 C268.99432201 289.9567527 248.32660086 297.88784688 226.30577087 297.76520348 C225.12227794 297.77058901 223.93878501 297.77597455 222.71942866 297.78152329 C219.47487109 297.79325165 216.23064892 297.79178093 212.98608923 297.78435647 C209.47139525 297.77958975 205.95675416 297.79216509 202.44207764 297.80237389 C195.573365 297.81949699 188.70474411 297.82041575 181.83601569 297.81516098 C176.25097986 297.81110723 170.66597099 297.81257708 165.08093643 297.81790924 C164.28379435 297.81865766 163.48665228 297.81940608 162.66535438 297.82017719 C161.04562436 297.82170877 159.42589435 297.82324711 157.80616434 297.82479215 C142.64675803 297.83849277 127.48740346 297.83309586 112.32799836 297.82160694 C98.47520524 297.81166893 84.62254559 297.82462935 70.76977305 297.84854113 C56.52096814 297.87295003 42.27222534 297.88253611 28.02339995 297.87588841 C20.03353403 297.87240122 12.04377079 297.87459557 4.05392075 297.89213943 C-2.74464873 297.90688351 -9.54304313 297.90746774 -16.34160925 297.89006852 C-19.80637791 297.88157572 -23.27083408 297.87936651 -26.73558617 297.89472008 C-30.4995189 297.90793477 -34.26260772 297.89637659 -38.02650452 297.87872887 C-39.65186738 297.89313638 -39.65186738 297.89313638 -41.31006587 297.90783495 C-53.92904818 297.78648664 -62.59245198 293.22786757 -71.85838318 285.06502342 C-82.39621401 273.1406359 -84.847261 260.55438339 -84.7509613 244.92024803 C-84.75639604 243.41744374 -84.7635262 241.91464478 -84.77220154 240.4118557 C-84.79026347 236.37309375 -84.78344308 232.3347455 -84.7706852 228.29597735 C-84.76048465 224.05512827 -84.76996874 219.81431216 -84.77622986 215.57346153 C-84.78347873 208.46487179 -84.77398398 201.35644907 -84.75486755 194.24788475 C-84.73302851 186.03203549 -84.74021194 177.81658224 -84.76217318 169.60074228 C-84.78031627 162.52952876 -84.78289314 155.45843445 -84.7724185 148.38720518 C-84.76618721 144.17076112 -84.76533935 139.95450349 -84.77856445 135.73807144 C-84.7901092 131.78237849 -84.78212313 127.82719851 -84.75898743 123.87156105 C-84.75369613 122.42032473 -84.75522138 120.96904526 -84.76403809 119.51782608 C-84.77495666 117.53841119 -84.75884092 115.55890197 -84.74131775 113.57953453 C-84.73980965 112.47183173 -84.73830154 111.36412893 -84.73674774 110.22285938 C-84.11320696 106.69821117 -83.06257073 105.51227753 -80.23338318 103.37752342 C-76.93357849 102.92342186 -76.93357849 102.92342186 -73.06150818 102.98689842 C-72.03788177 102.99538811 -72.03788177 102.99538811 -70.99357605 103.0040493 C-68.82278556 103.02636706 -66.65367112 103.07654835 -64.48338318 103.12752342 C-63.00814667 103.14759467 -61.53288418 103.16584436 -60.05760193 103.18221092 C-56.44898817 103.22621462 -52.84134936 103.29520759 -49.23338318 103.37752342 C-49.24909363 102.18151512 -49.26480408 100.98550682 -49.2809906 99.75325584 C-49.33525379 95.31973049 -49.36972008 90.88623454 -49.3981781 86.45247459 C-49.41327298 84.53282804 -49.43375091 82.61321602 -49.45970154 80.69368553 C-49.49605427 77.93586779 -49.5131023 75.17850562 -49.52635193 72.42049217 C-49.54183578 71.56102486 -49.55731964 70.70155754 -49.57327271 69.81604576 C-49.5734993 69.01544228 -49.57372589 68.21483879 -49.57395935 67.38997459 C-49.58062119 66.68604073 -49.58728302 65.98210686 -49.59414673 65.25684166 C-49.11332246 62.75209358 -48.26858326 61.88259394 -46.23338318 60.37752342 C-43.29153577 60.11584663 -40.56601108 60.02878421 -37.62791443 60.08455467 C-36.78870956 60.08879951 -35.9495047 60.09304436 -35.08486938 60.09741783 C-32.40488073 60.11420878 -29.72564448 60.15186113 -27.04588318 60.19002342 C-25.22883675 60.20506975 -23.41177853 60.21875825 -21.5947113 60.23103905 C-17.14064542 60.2641136 -12.68714186 60.31589829 -8.23338318 60.37752342 C-8.24337593 59.31636566 -8.24337593 59.31636566 -8.25357056 58.23377037 C-8.31367015 51.56833447 -8.35935157 44.90297412 -8.38881969 38.23732853 C-8.40447891 34.81039119 -8.42572121 31.38367765 -8.45970154 27.95686913 C-8.49851832 24.01768734 -8.51309033 20.07859633 -8.52635193 16.13924217 C-8.54183578 14.90792061 -8.55731964 13.67659904 -8.57327271 12.40796471 C-8.5734993 11.26700844 -8.57372589 10.12605217 -8.57395935 8.95052147 C-8.5839521 7.44161591 -8.5839521 7.44161591 -8.59414673 5.9022274 C-7.84784037 0.67940864 -4.83103282 0.00248989 0 0 Z M2.76661682 11.37752342 C2.59610585 93.15739579 2.59610585 93.15739579 2.46876526 174.93733788 C2.4233551 190.75679588 2.4233551 190.75679588 2.39704895 198.1633358 C2.38004866 203.33453788 2.37385594 208.50566037 2.37507629 213.6768856 C2.37659245 220.2774656 2.35753544 226.87777623 2.32552767 233.47829282 C2.31702087 235.89795556 2.31516318 238.31765321 2.32079268 240.73732436 C2.32744785 244.01316768 2.30949441 247.28801396 2.28559875 250.56375694 C2.29335957 251.50417933 2.30112038 252.44460173 2.30911636 253.41352177 C2.19535702 262.28755719 -0.55111681 270.31196621 -5.29588318 277.81502342 C-5.78185974 278.59748436 -6.2678363 279.3799453 -6.76853943 280.18611717 C-8.18803656 282.30968488 -9.69338558 284.34047685 -11.23338318 286.37752342 C20.21536242 286.49178646 51.66405271 286.58017468 83.11295685 286.63285007 C86.83263421 286.63910299 90.55231117 286.64557467 94.27198792 286.65218163 C95.38268708 286.65414895 95.38268708 286.65414895 96.51582462 286.65615603 C108.47785357 286.67786445 120.43976139 286.71726055 132.40171868 286.7632874 C144.69180324 286.81017955 156.98182472 286.83784565 169.27199507 286.8479659 C176.8450521 286.85479876 184.41776662 286.87631484 191.99071813 286.91710576 C197.81484182 286.94686323 203.63875001 286.9497656 209.46293449 286.94306183 C211.83959488 286.94442931 214.2162691 286.95426659 216.59285164 286.9735508 C239.30488514 287.1486913 258.2797144 282.91466669 275.76661682 267.37752342 C276.4034137 266.82322655 277.04021057 266.26892967 277.69630432 265.69783592 C289.1706643 255.03943044 296.27598898 238.68710891 298.76661682 223.37752342 C298.85724343 220.4858746 298.8972667 217.61911893 298.88687134 214.727911 C298.88772736 213.86001945 298.88858337 212.99212791 298.88946533 212.09793663 C298.89112008 209.18158984 298.88559757 206.26530051 298.88014221 203.34895897 C298.87983588 201.22574077 298.87996936 199.10252247 298.88050747 196.97930431 C298.88073335 191.29024022 298.87493484 185.60119712 298.86789703 179.91213799 C298.86220476 174.57495622 298.86193406 169.23777957 298.86122131 163.90059471 C298.85597268 148.28873483 298.84201154 132.67687886 298.82911682 117.06502342 C298.80849182 82.18814842 298.78786682 47.31127342 298.76661682 11.37752342 C201.08661682 11.37752342 103.40661682 11.37752342 2.76661682 11.37752342 Z " fill="#010101" transform="translate(149.23338317871094,117.62247657775879)"/>
<path d="M0 0 C0.82532415 -0.00467997 1.65064831 -0.00935994 2.50098228 -0.01418173 C5.27636999 -0.02618185 8.05126848 -0.01665502 10.82666016 -0.00723267 C12.81236053 -0.01129614 14.79805864 -0.01663675 16.78375244 -0.02316284 C22.18448655 -0.03686889 27.58504923 -0.03152422 32.98578644 -0.02202559 C38.62985201 -0.01444601 44.27390262 -0.02146985 49.91796875 -0.02618408 C59.39732507 -0.0316466 68.87661134 -0.02443699 78.35595703 -0.01016235 C89.32538402 0.00616508 100.29464376 0.00087693 111.2640667 -0.01564157 C120.67132947 -0.02924229 130.07854181 -0.03118302 139.48581123 -0.02332556 C145.10911934 -0.01864126 150.73234876 -0.01804495 156.35565186 -0.02793503 C161.6415772 -0.03658184 166.92728627 -0.03062465 172.21318817 -0.01325226 C174.15667104 -0.00927518 176.10017202 -0.01044222 178.04364777 -0.01704025 C180.68982855 -0.02519771 183.33530953 -0.01500482 185.98144531 0 C186.75663198 -0.00669217 187.53181866 -0.01338433 188.33049583 -0.02027929 C193.50679292 0.03693631 193.50679292 0.03693631 195.96749306 1.78619194 C197.25837117 3.79809569 197.37091928 5.05282361 197.37890625 7.43759155 C197.38836273 8.24853271 197.39781921 9.05947388 197.40756226 9.89498901 C197.39845322 11.20288391 197.39845322 11.20288391 197.38916016 12.53720093 C197.39346542 13.8852179 197.39346542 13.8852179 197.39785767 15.26046753 C197.39989881 17.16017283 197.39436544 19.05989913 197.38183594 20.95956421 C197.36578286 23.87003502 197.38168278 26.77911714 197.40087891 29.68954468 C197.39889648 31.53459983 197.39505283 33.37965412 197.38916016 35.22470093 C197.39523285 36.09663086 197.40130554 36.96856079 197.40756226 37.86691284 C197.39337753 39.08332458 197.39337753 39.08332458 197.37890625 40.3243103 C197.37651947 41.03696045 197.37413269 41.7496106 197.37167358 42.4838562 C196.84016467 45.13071352 196.20937033 45.80376488 193.99072266 47.38095093 C191.24570415 47.675736 188.72738022 47.78560744 185.98144531 47.76190186 C184.74345908 47.76892181 184.74345908 47.76892181 183.48046303 47.77608359 C180.70507533 47.7880837 177.93017684 47.77855688 175.15478516 47.76913452 C173.16908479 47.773198 171.18338668 47.77853861 169.19769287 47.7850647 C163.79695876 47.79877074 158.39639608 47.79342608 152.99565887 47.78392744 C147.3515933 47.77634786 141.7075427 47.78337171 136.06347656 47.78808594 C126.58412024 47.79354846 117.10483397 47.78633885 107.62548828 47.77206421 C96.65606129 47.75573677 85.68680156 47.76102493 74.71737862 47.77754343 C65.31011584 47.79114414 55.90290351 47.79308488 46.49563408 47.78522742 C40.87232597 47.78054312 35.24909655 47.77994681 29.62579346 47.78983688 C24.33986811 47.7984837 19.05415905 47.79252651 13.76825714 47.77515411 C11.82477427 47.77117703 9.88127329 47.77234408 7.93779755 47.77894211 C5.29161676 47.78709957 2.64613579 47.77690668 0 47.76190186 C-0.77518667 47.76859402 -1.55037334 47.77528619 -2.34905052 47.78218114 C-7.52534761 47.72496555 -7.52534761 47.72496555 -9.98604774 45.97570992 C-11.27692585 43.96380617 -11.38947397 42.70907824 -11.39746094 40.3243103 C-11.40691742 39.51336914 -11.4163739 38.70242798 -11.42611694 37.86691284 C-11.42004425 36.99498291 -11.41397156 36.12305298 -11.40771484 35.22470093 C-11.41058502 34.32602295 -11.4134552 33.42734497 -11.41641235 32.50143433 C-11.4184535 30.60172902 -11.41292013 28.70200273 -11.40039062 26.80233765 C-11.38433755 23.89186683 -11.40023747 20.98278472 -11.41943359 18.07235718 C-11.41745117 16.22730202 -11.41360751 14.38224774 -11.40771484 12.53720093 C-11.41378754 11.665271 -11.41986023 10.79334106 -11.42611694 9.89498901 C-11.41666046 9.08404785 -11.40720398 8.27310669 -11.39746094 7.43759155 C-11.39507416 6.72494141 -11.39268738 6.01229126 -11.39022827 5.27804565 C-10.19590236 -0.66956919 -5.01370451 -0.04328317 0 0 Z " fill="#070505" transform="translate(207.00927734375,154.61904907226563)"/>
<path d="M0 0 C6.27 0 12.54 0 19 0 C19.06950942 27.43410253 19.12301592 54.86818378 19.15543652 82.30235672 C19.17089148 95.04111991 19.19195485 107.77982731 19.22631836 120.51855469 C19.25626261 131.62435404 19.27558496 142.73011297 19.28226548 153.83595157 C19.28616921 159.71391985 19.29531506 165.59177252 19.31719017 171.46970367 C19.33763466 177.00837922 19.34381771 182.54689211 19.33932304 188.08560181 C19.34014469 190.11239253 19.34606263 192.139189 19.35761642 194.16594696 C19.48034716 216.81669581 14.32746952 236.68905487 -1.59765625 253.62109375 C-9.30767235 261.25589018 -17.83342894 267.07273562 -28 271 C-28.85842813 271.33635342 -29.71685627 271.67270683 -30.60129738 272.01925278 C-42.40800985 276.00399581 -54.12001806 275.53386071 -66.44677734 275.45410156 C-68.90201295 275.45297167 -71.35724991 275.45360972 -73.81248474 275.45587158 C-79.07306976 275.45677821 -84.33347524 275.44553973 -89.59400558 275.42292023 C-97.19957601 275.39023891 -104.8050508 275.37997685 -112.41068383 275.37496826 C-124.75398718 275.36624072 -137.09718405 275.3396946 -149.44042969 275.30175781 C-161.42186963 275.26497161 -173.40328052 275.23669233 -185.38476562 275.21972656 C-186.1248494 275.21867567 -186.86493317 275.21762477 -187.62744372 275.21654204 C-191.3406884 275.21132141 -195.05393328 275.20626669 -198.7671783 275.20129442 C-229.5115296 275.15991161 -260.25574854 275.08923303 -291 275 C-286.5 269 -286.5 269 -282 263 C-282 263.66 -282 264.32 -282 265 C-254.65215455 264.96275746 -227.30443954 264.90278527 -199.95670414 264.81609726 C-187.25734826 264.77636647 -174.55805382 264.74394373 -161.85864258 264.72900391 C-150.78385474 264.71595647 -139.70920241 264.68891307 -128.63449091 264.64538693 C-122.77593631 264.62284165 -116.91754843 264.60708515 -111.05894661 264.60811615 C-105.53245568 264.60886687 -100.00633232 264.59075186 -94.4799366 264.55883217 C-92.46333496 264.55038878 -90.44669181 264.5485449 -88.43008041 264.55419731 C-63.33692305 264.61510425 -40.85426121 259.09646406 -22.5 240.875 C-18.80763056 237.19652528 -15.7697827 233.40290929 -13 229 C-13.66 228.67 -14.32 228.34 -15 228 C-14.34 227.67 -13.68 227.34 -13 227 C-12.67 186.08 -12.34 145.16 -12 103 C-11.67 103 -11.34 103 -11 103 C-10.67 142.93 -10.34 182.86 -10 224 C-4.69663234 212.33259114 -0.85806173 203.48933055 -0.84178162 190.84391785 C-0.83437465 189.61856928 -0.83437465 189.61856928 -0.82681805 188.3684662 C-0.81147211 185.63391112 -0.80309029 182.89937947 -0.79467773 180.16479492 C-0.78509693 178.20348912 -0.77508673 176.24218538 -0.76467896 174.28088379 C-0.73764578 168.95698266 -0.71662759 163.63307267 -0.69667697 158.30914092 C-0.67480766 152.7450841 -0.64742358 147.1810545 -0.62062073 141.61701965 C-0.57070665 131.0809508 -0.52576303 120.54486681 -0.48259836 110.00876838 C-0.43321503 98.01369942 -0.37830095 86.01865777 -0.32291877 74.02361524 C-0.20911844 49.34910214 -0.10247132 24.67456253 0 0 Z " fill="#BCBCBC" transform="translate(429,129)"/>
<path d="M0 0 C0.94036919 -0.00397441 1.88073837 -0.00794881 2.84960359 -0.01204365 C6.01426232 -0.02170139 9.17847789 -0.00982749 12.34312439 0.00190735 C14.6063046 -0.00051945 16.86948374 -0.00423768 19.13265991 -0.00915527 C25.28950194 -0.01858266 31.44618551 -0.00912355 37.60301518 0.00417686 C44.03497555 0.01546732 50.46692784 0.01138575 56.89889526 0.00942993 C67.70064755 0.00854626 78.50232773 0.01957273 89.30406189 0.03804016 C100.42550042 0.05704927 111.54686609 0.0641267 122.6683197 0.05854797 C136.0609665 0.05184987 149.45355911 0.05512797 162.84620476 0.06765175 C167.96620214 0.07230706 173.08617973 0.07316758 178.20617867 0.0710659 C184.22993694 0.06918814 190.25360119 0.07724731 196.27733803 0.0931263 C198.49376283 0.09738414 200.71019714 0.0982097 202.9266243 0.0954361 C205.94085223 0.09223525 208.9547955 0.10124285 211.96899414 0.11352539 C212.85604021 0.10974607 213.74308627 0.10596674 214.65701252 0.10207289 C220.69267632 0.14589287 220.69267632 0.14589287 222.92100525 2.3742218 C223.17548084 4.56690216 223.17548084 4.56690216 223.18170166 7.34675598 C223.18878647 8.39838425 223.19587128 9.45001251 223.20317078 10.5335083 C223.20069336 11.69201797 223.19821594 12.85052765 223.19566345 14.04414368 C223.20077438 15.26041946 223.20588531 16.47669525 223.21115112 17.72982788 C223.22269309 21.0707279 223.22511704 24.41138032 223.22258782 27.7522831 C223.22152001 30.53825722 223.22639653 33.32420831 223.23119324 36.11017752 C223.24229708 42.68046883 223.24272072 49.25070298 223.23667908 55.82099915 C223.23063535 62.60685468 223.24295826 69.39250308 223.26424915 76.17832327 C223.28184055 81.99831769 223.28787048 87.81824604 223.2846114 93.63826609 C223.28279468 97.11703527 223.28547326 100.59565666 223.29932594 104.07440186 C223.31418522 107.95111794 223.30495576 111.82756824 223.2933197 115.70429993 C223.30096344 116.8628096 223.30860718 118.02131927 223.31648254 119.2149353 C223.30946823 120.26656357 223.30245392 121.31819183 223.29522705 122.40168762 C223.29539479 123.31903938 223.29556253 124.23639114 223.29573536 125.18154144 C223.17207442 125.90512596 223.04841349 126.62871048 222.92100525 127.3742218 C218.9458767 130.0243075 215.50164835 129.6578854 210.88670349 129.64164734 C209.48333339 129.64844401 209.48333339 129.64844401 208.05161238 129.65537798 C204.90320936 129.66808169 201.754978 129.66639778 198.60655212 129.66474915 C196.35484595 129.67073058 194.10314183 129.67753523 191.85144043 129.68510437 C185.72556804 129.70280859 179.59975147 129.70746155 173.47385597 129.70873594 C168.36663262 129.71063193 163.25942236 129.71798582 158.15220404 129.72508013 C146.7965907 129.74044619 135.44101204 129.74641654 124.08539182 129.74506943 C123.40385421 129.74498952 122.7223166 129.7449096 122.02012634 129.74482727 C121.337759 129.74474551 120.65539165 129.74466375 119.9523465 129.74457951 C108.88704546 129.74376614 97.82188038 129.76291608 86.75661868 129.791104 C75.40100049 129.81980395 64.04546935 129.83327931 52.68980646 129.83191645 C46.3119311 129.83140535 39.93420963 129.83717051 33.55636597 129.85827255 C27.56127295 129.87756615 21.56648207 129.87784044 15.57137871 129.86323929 C13.36665343 129.86113917 11.16190968 129.86592301 8.95721626 129.87796021 C5.95621899 129.89328854 2.95627983 129.88418711 -0.04469299 129.86869812 C-0.92493527 129.87898525 -1.80517755 129.88927237 -2.71209383 129.89987123 C-8.53216593 129.83310986 -8.53216593 129.83310986 -11.11982918 127.66159344 C-12.22541656 125.02504216 -12.45632036 123.1411092 -12.45994568 120.28179932 C-12.46840515 119.25410934 -12.47686462 118.22641937 -12.48558044 117.16758728 C-12.47950775 116.04589142 -12.47343506 114.92419556 -12.46717834 113.76850891 C-12.4724353 112.58280807 -12.47769226 111.39710724 -12.48310852 110.17547607 C-12.4940479 106.92755706 -12.49148704 103.68000496 -12.48197126 100.43209147 C-12.4743727 97.03287536 -12.48142066 93.63368364 -12.48612976 90.23446655 C-12.49158601 84.52734479 -12.48439842 78.82033954 -12.47010803 73.11323547 C-12.45377384 66.51366026 -12.45907594 59.91436298 -12.47558725 53.31479448 C-12.48919658 47.6484476 -12.49112476 41.98218442 -12.48327124 36.31582648 C-12.47859264 32.93152246 -12.47797503 29.54734915 -12.48788071 26.16305351 C-12.49547261 22.39202261 -12.48392226 18.62153076 -12.46717834 14.85054016 C-12.47325104 13.72682007 -12.47932373 12.60309998 -12.48558044 11.44532776 C-12.47712097 10.42045761 -12.4686615 9.39558746 -12.45994568 8.33966064 C-12.4588146 7.44795135 -12.45768353 6.55624205 -12.45651817 5.63751125 C-11.35800456 -0.94818417 -5.4117219 -0.04510272 0 0 Z M-1.07899475 10.3742218 C-1.07899475 46.0142218 -1.07899475 81.6542218 -1.07899475 118.3742218 C69.54100525 118.3742218 140.16100525 118.3742218 212.92100525 118.3742218 C212.92100525 82.7342218 212.92100525 47.0942218 212.92100525 10.3742218 C142.30100525 10.3742218 71.68100525 10.3742218 -1.07899475 10.3742218 Z " fill="#030303" transform="translate(194.07899475097656,228.6257781982422)"/>
<path d="M0 0 C7.92 0 15.84 0 24 0 C24.33 43.56 24.66 87.12 25 132 C38.2 132.33 51.4 132.66 65 133 C65 145.07282245 64.72756193 152.83375266 57.08984375 161.95703125 C49.98063942 168.90677679 41.60818905 171.96484359 31.8125 172.5 C22.86261939 172.34551414 15.52509361 168.66418238 9 162.625 C0.38013313 153.10329791 -0.2955459 142.26805951 -0.22705078 129.98657227 C-0.22648602 128.56683866 -0.22680449 127.14710448 -0.22793579 125.72737122 C-0.22850778 121.88901349 -0.21677853 118.05078169 -0.20278788 114.21245313 C-0.19025474 110.19526645 -0.18910798 106.17807663 -0.18673706 102.16087341 C-0.18052987 94.56081222 -0.16412938 86.96080882 -0.14403808 79.36077303 C-0.12165536 70.70540262 -0.11067969 62.05002939 -0.10064721 53.39463723 C-0.07976246 35.59639119 -0.04419673 17.79820237 0 0 Z " fill="#ADADAC" transform="translate(76,232)"/>
<path d="M0 0 C91.41 0 182.82 0 277 0 C277 2.64 277 5.28 277 8 C275.75593919 8.00238835 274.51187838 8.00477671 273.23011875 8.00723743 C243.68312212 8.06462622 214.13620458 8.13737731 184.58929629 8.22898628 C180.95072586 8.24025413 177.31215505 8.25139263 173.67358398 8.26245117 C172.58704609 8.2657567 172.58704609 8.2657567 171.47855794 8.269129 C159.75760345 8.30447885 148.03664902 8.32935602 136.31566102 8.35034702 C124.28433294 8.37212752 112.2530739 8.40519926 100.22180456 8.44870156 C93.46592097 8.4728067 86.71010599 8.49173417 79.95417976 8.49761391 C73.59387057 8.50366134 67.23375677 8.5236494 60.8735199 8.55427551 C58.54071853 8.56306111 56.20789163 8.56677724 53.87507439 8.56500816 C50.68566113 8.56335332 47.49684203 8.5800735 44.30751038 8.60127258 C43.38822551 8.59642501 42.46894065 8.59157743 41.52179867 8.58658296 C31.88643503 8.69199577 24.9663823 11.15882096 17.94921875 17.80859375 C13.33720665 22.99364142 10.88295032 29.06173989 10.86692142 36.0049572 C10.86268038 36.7964686 10.85843933 37.58798 10.85406977 38.4034766 C10.8544559 39.26708683 10.85484203 40.13069706 10.85523987 41.02047729 C10.8499496 42.403578 10.8499496 42.403578 10.84455246 43.81462014 C10.83385833 46.91141197 10.83018324 50.00817304 10.82641602 53.10498047 C10.82011134 55.32240937 10.81334563 57.53983699 10.80615234 59.75726318 C10.79147718 64.53610851 10.77975459 69.31494894 10.77020454 74.09380722 C10.75476449 81.64850922 10.73081589 89.20316918 10.70530701 96.75784302 C10.67019006 107.34848398 10.6370954 117.93912835 10.60717773 128.52978516 C10.60527724 129.20182823 10.60337675 129.8738713 10.60141867 130.56627931 C10.57458948 140.10245295 10.55071361 149.63863173 10.52803367 159.17481603 C10.52643637 159.84625271 10.52483906 160.5176894 10.52319336 161.20947266 C10.52159989 161.88009034 10.52000643 162.55070803 10.51836468 163.24164747 C10.49158966 174.42669139 10.45707331 185.61169927 10.41653961 196.7967025 C10.38974792 204.30825916 10.37185461 211.81976838 10.36050236 219.33136344 C10.35138276 224.00353984 10.334024 228.67565856 10.31432343 233.34780121 C10.30684402 235.51577727 10.30276663 237.68376813 10.30232811 239.85175705 C10.30124657 242.80980452 10.28800735 245.76755813 10.27174377 248.72555542 C10.27436063 249.58470421 10.27697748 250.44385299 10.27967364 251.32903659 C10.27282484 252.12576349 10.26597605 252.92249038 10.25891972 253.74336052 C10.25631534 254.76649214 10.25631534 254.76649214 10.25365835 255.81029308 C10 258 10 258 8 264 C3.71 264 -0.58 264 -5 264 C-4.31235636 260.5617818 -3.68323244 258.0107465 -2.46242046 254.84832859 C-0.70573401 249.66438283 -0.5734204 244.86285311 -0.60127258 239.42674255 C-0.59131004 237.88757172 -0.59131004 237.88757172 -0.58114624 236.31730652 C-0.56254443 232.88778696 -0.5651405 229.45861707 -0.56762695 226.02905273 C-0.55851869 223.52487484 -0.54810506 221.0207014 -0.53649426 218.51653385 C-0.51182419 212.49913181 -0.50042422 206.48184326 -0.49541168 200.46440426 C-0.48894626 193.49903468 -0.46338874 186.53380687 -0.43786621 179.56848145 C-0.37990102 161.19153153 -0.34777388 142.81450747 -0.3125 124.4375 C-0.209375 83.373125 -0.10625 42.30875 0 0 Z " fill="#FDFDFD" transform="translate(152,129)"/>
<path d="M0 0 C9.9 0 19.8 0 30 0 C30 54.78 30 109.56 30 166 C20.1 166 10.2 166 0 166 C0 111.22 0 56.44 0 0 Z " fill="#BDBDBD" transform="translate(111,189)"/>
<path d="M0 0 C61.38 0 122.76 0 186 0 C186 8.25 186 16.5 186 25 C124.62 25 63.24 25 0 25 C0 16.75 0 8.5 0 0 Z " fill="#E47272" transform="translate(207,166)"/>
<path d="M0 0 C70.62 0 141.24 0 214 0 C214 35.64 214 71.28 214 108 C143.38 108 72.76 108 0 108 C0 104.04 0 100.08 0 96 C0.89268522 95.99761165 1.78537045 95.99522329 2.70510674 95.99276257 C24.44794082 95.93357052 46.19066446 95.85799344 67.93337822 95.76428509 C78.44808829 95.71936119 88.96276475 95.67993865 99.47753906 95.65356445 C108.64453912 95.63055682 117.81143249 95.59712785 126.9783479 95.55129844 C131.83005223 95.52740357 136.68165115 95.50865031 141.53341293 95.50238609 C146.10528866 95.49631834 150.67689483 95.47625758 155.24867058 95.44572449 C156.92151069 95.4369713 158.59438608 95.43321601 160.26724815 95.43499184 C172.80947297 95.44409768 184.17688184 94.67740074 194 86 C213.03753802 63.25279183 202.63856791 26.30024647 203 1 C136.01 1 69.02 1 0 1 C0 0.67 0 0.34 0 0 Z " fill="#C7AF8C" transform="translate(193,239)"/>
<path d="M0 0 C66.99 0 133.98 0 203 0 C203 2.97 203 5.94 203 9 C202.12093239 9.00331015 201.24186478 9.00662029 200.33615875 9.01003075 C178.93620001 9.09128798 157.53631182 9.18338944 136.13645172 9.28752708 C125.7875974 9.33762658 115.43875089 9.38406984 105.08984375 9.421875 C96.06864504 9.45483927 87.04750745 9.49469504 78.02637625 9.54279006 C73.25076665 9.56801091 68.47519737 9.58980523 63.69953918 9.60334396 C59.20159099 9.61620437 54.70378138 9.63830158 50.20590973 9.66738319 C48.55802664 9.6764279 46.91012126 9.68214192 45.26221466 9.68421364 C43.00526104 9.68755824 40.74869514 9.70309421 38.49182129 9.7215271 C37.23080849 9.72705786 35.96979568 9.73258862 34.67057037 9.73828697 C28.76423878 10.1594106 23.23698946 11.07472988 18.6875 15.125 C18.05199219 15.66382813 17.41648438 16.20265625 16.76171875 16.7578125 C10.78709759 24.36187579 11.52687899 33.48688518 11.48828125 42.65625 C11.47141309 44.16940753 11.45326 45.68255122 11.43388367 47.19567871 C11.38660907 51.1542529 11.35665468 55.11277099 11.33044434 59.0715332 C11.30052425 63.12071811 11.2540336 67.16971016 11.20898438 71.21875 C11.12320815 79.14573806 11.05574958 87.07274414 11 95 C7.37 95 3.74 95 0 95 C0 63.65 0 32.3 0 0 Z " fill="#FEEBD0" transform="translate(193,240)"/>
<path d="M0 0 C4.62 0 9.24 0 14 0 C14 8.25 14 16.5 14 25 C-47.38 25 -108.76 25 -172 25 C-172 21.7 -172 18.4 -172 15 C-171.19823837 14.99853344 -170.39647675 14.99706688 -169.57041931 14.99555588 C-150.04808057 14.95847969 -130.52592065 14.89945415 -111.00372314 14.81609726 C-101.56286337 14.77631368 -92.12208687 14.74391772 -82.68115234 14.72900391 C-74.4509667 14.71598387 -66.22096434 14.6890102 -57.99088192 14.64538693 C-53.63440068 14.62278002 -49.27814544 14.60708885 -44.92160034 14.60811615 C-40.81748669 14.60886322 -36.71387247 14.59089385 -32.60988808 14.55883217 C-31.10714306 14.55034322 -29.60434196 14.54857643 -28.10158348 14.55419731 C-15.81710212 14.68626287 -15.81710212 14.68626287 -5.493927 8.55291367 C-3.12572415 5.86641938 -1.60702339 3.21404678 0 0 Z " fill="#B85C5C" transform="translate(379,166)"/>
<path d="M0 0 C7.92 0 15.84 0 24 0 C24.33 43.56 24.66 87.12 25 132 C38.2 132.33 51.4 132.66 65 133 C65 135.97 65 138.94 65 142 C48.17 142 31.34 142 14 142 C14 95.47 14 48.94 14 1 C9.71 1 5.42 1 1 1 C1 48.19 1 95.38 1 144 C0.67 144 0.34 144 0 144 C0 96.48 0 48.96 0 0 Z " fill="#898988" transform="translate(76,232)"/>
<path d="M0 0 C9.9 0 19.8 0 30 0 C30 54.78 30 109.56 30 166 C20.1 166 10.2 166 0 166 C0 165.67 0 165.34 0 165 C6.93 165 13.86 165 21 165 C21 110.88 21 56.76 21 1 C14.07 1 7.14 1 0 1 C0 0.67 0 0.34 0 0 Z " fill="#969696" transform="translate(111,189)"/>
<path d="M0 0 C2.42178942 1.75268867 2.95383413 2.78537455 3.58984375 5.7421875 C3.70457031 6.77601563 3.81929688 7.80984375 3.9375 8.875 C4.4895422 12.54786144 4.98683586 14.97415928 6.6875 18.3125 C8.9994993 20.29499546 8.9994993 20.29499546 12.5 20.375 C16.37741697 18.85172905 16.69859632 18.44806477 18.375 14.875 C19.85622447 10.95006765 20.41909276 7.14933739 21 3 C22.1875 1 22.1875 1 24 0 C29.43478261 0.43478261 29.43478261 0.43478261 31 2 C31.91025426 10.62140824 31.33469023 17.9464955 26 25 C22.12202809 28.63328153 18.20427417 31.82711575 12.8125 32.25 C6.32211408 31.82440092 1.82345698 29.23879553 -3 25 C-3.886875 25.78375 -4.77375 26.5675 -5.6875 27.375 C-9.47171089 30.49608983 -12.4450477 31.82722752 -17.375 32.375 C-23.35031748 31.75686371 -26.72710581 29.33075301 -30.75 25.125 C-35.97626245 17.86630216 -37.43158374 11.77553612 -37 3 C-35 1 -35 1 -31.5 0.75 C-28 1 -28 1 -26 3 C-25.47265625 5.42578125 -25.47265625 5.42578125 -25.0625 8.3125 C-24.14573683 14.14013879 -24.14573683 14.14013879 -21 19 C-18.10293293 20.24677006 -18.10293293 20.24677006 -15 20 C-11.62859772 17.56509835 -10.16459012 14.94168965 -9 11 C-8.83844221 9.62675878 -8.69359367 8.25148349 -8.5625 6.875 C-8 3 -8 3 -6.75 1 C-4.31044362 -0.39403222 -2.76411292 -0.41461694 0 0 Z " fill="#060504" transform="translate(313,302)"/>
<path d="M0 0 C4.36775158 3.14884416 7.96773395 6.77820184 9.6875 11.9375 C10.53208533 17.26159484 9.99093031 21.13859618 7.125 25.75 C3.65835084 30.38299841 0.40215432 33.37900302 -5.546875 34.2734375 C-10.51674331 34.49024384 -14.13902424 33.81256108 -18.3125 30.9375 C-23.07057837 26.21292923 -25.43173483 22.58787886 -25.75 15.75 C-25.70761418 10.41645039 -24.44857605 7.49746553 -20.9375 3.53125 C-14.99713026 -2.29488186 -7.78331002 -2.4965334 0 0 Z " fill="#060504" transform="translate(363.3125,252.0625)"/>
<path d="M0 0 C5.57383984 1.87150827 9.3966648 5.79332959 12 11 C12.75258735 17.98831114 12.67924315 23.65919436 8.4296875 29.4453125 C4.34091259 33.89157592 0.0552536 34.75615635 -5.6875 35.4375 C-11.1669673 35.33508005 -15.12171906 32.71827328 -19 29 C-22.32428386 24.08041639 -23.96988239 18.92705903 -23 13 C-18.1503259 2.46587183 -11.29742588 -1.12350092 0 0 Z " fill="#060504" transform="translate(260,251)"/>
<path d="M0 0 C1.0625 1.75 1.0625 1.75 1.0625 5.1875 C-0.11401839 9.37884676 -1.29148231 10.49294143 -4.9375 12.75 C-10.16878926 14.49376309 -15.6389021 14.52540854 -20.8125 12.5 C-25.51200077 9.86827957 -25.51200077 9.86827957 -26.9375 6.75 C-26.9375 2.77616271 -26.45381048 1.26631048 -23.625 -1.5625 C-15.72928822 -6.52027251 -7.44793207 -4.80511746 0 0 Z " fill="#E57674" transform="translate(382.9375,299.25)"/>
<path d="M0 0 C3.38281547 1.2413462 6.32925184 2.65850367 8 6 C8.39303408 9.61591352 8.5214926 11.32950951 6.25 14.25 C0.79025945 18.49646487 -4.21696279 18.82456603 -11 18 C-14.26958986 16.63283422 -16.50230773 14.49769227 -19 12 C-19.5 9.1875 -19.5 9.1875 -19 6 C-13.57977967 -0.25154247 -7.83631701 -0.80842335 0 0 Z " fill="#E57574" transform="translate(248,295)"/>
<path d="M0 0 C6.27 0 12.54 0 19 0 C19 2.64 19 5.28 19 8 C13.06 8 7.12 8 1 8 C1 68.39 1 128.78 1 191 C0.67 191 0.34 191 0 191 C0 127.97 0 64.94 0 0 Z " fill="#CCCCCC" transform="translate(429,129)"/>
<path d="M0 0 C0.33 0.66 0.66 1.32 1 2 C4.96 2 8.92 2 13 2 C11.8741386 5.53842155 10.66905241 8.66189518 9 12 C3.39 12 -2.22 12 -8 12 C-6.50260417 10.046875 -5.00520833 8.09375 -3.5078125 6.140625 C-2.10761086 4.15277397 -1.02144735 2.20156614 0 0 Z " fill="#CBCBCB" transform="translate(146,392)"/>
<path d="M0 0 C2.3125 1.625 2.3125 1.625 4 4 C4.61195145 7.6717087 4.48706506 9.28813568 2.375 12.375 C0 14 0 14 -3 14.5625 C-6 14 -6 14 -8.4375 11.875 C-10 9 -10 9 -10 5.875 C-8.2672175 0.89325032 -5.23199164 -0.91559854 0 0 Z " fill="#F4F4F4" transform="translate(366,258)"/>
<path d="M0 0 C3.4375 0.9375 3.4375 0.9375 5.4375 2.0625 C7.12135831 5.21973433 6.33452275 7.58861508 5.4375 10.9375 C3.31878452 13.28322071 2.0349873 13.83293972 -1.0625 14.375 C-4.46084723 13.78028924 -5.57491034 12.73484842 -7.5625 9.9375 C-8.17225382 6.27897708 -8.00793026 4.63237121 -6 1.5 C-3.5625 -0.0625 -3.5625 -0.0625 0 0 Z " fill="#F4F4F4" transform="translate(263.5625,258.0625)"/>
<path d="M0 0 C3.3 0 6.6 0 10 0 C10 2.97 10 5.94 10 9 C7.03 9 4.06 9 1 9 C1 27.81 1 46.62 1 66 C0.67 66 0.34 66 0 66 C0 44.22 0 22.44 0 0 Z " fill="#D2BEA1" transform="translate(396,240)"/>
<path d="M0 0 C3.63 0 7.26 0 11 0 C11 3.96 11 7.92 11 12 C7.37 12 3.74 12 0 12 C0 8.04 0 4.08 0 0 Z " fill="#CABBA5" transform="translate(193,335)"/>
<path d="M0 0 C0.53109375 0.40992188 1.0621875 0.81984375 1.609375 1.2421875 C2.31578125 1.78101563 3.0221875 2.31984375 3.75 2.875 C4.79414063 3.67550781 4.79414063 3.67550781 5.859375 4.4921875 C7.84722603 5.89238914 9.79843386 6.97855265 12 8 C11 9 11 9 8.22436523 9.11352539 C7.01466064 9.10828857 5.80495605 9.10305176 4.55859375 9.09765625 C3.25341797 9.09443359 1.94824219 9.09121094 0.60351562 9.08789062 C-0.7851569 9.07953401 -2.17382877 9.07106905 -3.5625 9.0625 C-4.95507656 9.05748666 -6.34765481 9.05292347 -7.74023438 9.04882812 C-11.1601987 9.03699434 -14.58007844 9.0205088 -18 9 C-18 8.67 -18 8.34 -18 8 C-17.02160156 7.85304688 -17.02160156 7.85304688 -16.0234375 7.703125 C-9.20515176 6.53657464 -4.95538975 4.95538975 0 0 Z " fill="#F1D4A8" transform="translate(310,326)"/>
<path d="M0 0 C0.33 0 0.66 0 1 0 C1 3.3 1 6.6 1 10 C-1.64 10 -4.28 10 -7 10 C-6.57847656 9.44570313 -6.15695313 8.89140625 -5.72265625 8.3203125 C-5.17480469 7.59585937 -4.62695312 6.87140625 -4.0625 6.125 C-3.51722656 5.40570313 -2.97195312 4.68640625 -2.41015625 3.9453125 C-0.96035376 2.05642921 -0.96035376 2.05642921 0 0 Z " fill="#B7B7B7" transform="translate(145,394)"/>
</svg>
